<mxfile host="app.diagrams.net" modified="2022-12-11T09:15:32.323Z" agent="5.0 (Windows NT 10.0; Win64; x64) AppleWebKit/537.36 (KHTML, like Gecko) Chrome/108.0.0.0 Safari/537.36" etag="RQCrEJk8AyavIAnC39Gb" version="20.6.0" type="github">
  <diagram id="3OsPEfAOoyPaBum_UQUX" name="Страница 1">
    <mxGraphModel dx="2188" dy="1172" grid="1" gridSize="10" guides="1" tooltips="1" connect="1" arrows="1" fold="1" page="1" pageScale="1" pageWidth="4681" pageHeight="3300" math="0" shadow="0">
      <root>
        <mxCell id="0" />
        <mxCell id="1" parent="0" />
        <mxCell id="UmSkoMp5Hw3NdGfvGKLo-2" value="&lt;font style=&quot;font-size: 14px;&quot;&gt;Составить план модернизации ПО&lt;/font&gt;" style="rounded=0;whiteSpace=wrap;html=1;" vertex="1" parent="1">
          <mxGeometry x="1811" y="1361" width="130" height="78" as="geometry" />
        </mxCell>
        <mxCell id="UmSkoMp5Hw3NdGfvGKLo-3" value="" style="endArrow=classic;html=1;rounded=1;exitX=1;exitY=0.25;exitDx=0;exitDy=0;entryX=0.25;entryY=0;entryDx=0;entryDy=0;" edge="1" parent="1" source="UmSkoMp5Hw3NdGfvGKLo-2" target="UmSkoMp5Hw3NdGfvGKLo-8">
          <mxGeometry width="50" height="50" relative="1" as="geometry">
            <mxPoint x="2211" y="1500" as="sourcePoint" />
            <mxPoint x="2161" y="1450" as="targetPoint" />
            <Array as="points">
              <mxPoint x="2131" y="1380" />
            </Array>
          </mxGeometry>
        </mxCell>
        <mxCell id="UmSkoMp5Hw3NdGfvGKLo-4" value="&lt;font style=&quot;font-size: 14px;&quot;&gt;План модернизации ПО&lt;/font&gt;" style="text;html=1;strokeColor=none;fillColor=none;align=center;verticalAlign=middle;whiteSpace=wrap;rounded=0;" vertex="1" parent="1">
          <mxGeometry x="1961" y="1340" width="160" height="40" as="geometry" />
        </mxCell>
        <mxCell id="UmSkoMp5Hw3NdGfvGKLo-6" value="" style="endArrow=classic;html=1;rounded=1;exitX=1;exitY=0.75;exitDx=0;exitDy=0;entryX=0;entryY=0.25;entryDx=0;entryDy=0;" edge="1" parent="1" source="UmSkoMp5Hw3NdGfvGKLo-2" target="UmSkoMp5Hw3NdGfvGKLo-8">
          <mxGeometry width="50" height="50" relative="1" as="geometry">
            <mxPoint x="2221" y="1480" as="sourcePoint" />
            <mxPoint x="2381" y="1560" as="targetPoint" />
            <Array as="points">
              <mxPoint x="2021" y="1420" />
              <mxPoint x="2021" y="1500" />
            </Array>
          </mxGeometry>
        </mxCell>
        <mxCell id="UmSkoMp5Hw3NdGfvGKLo-7" value="&lt;font style=&quot;font-size: 14px;&quot;&gt;Задачи&lt;/font&gt;" style="text;html=1;strokeColor=none;fillColor=none;align=center;verticalAlign=middle;whiteSpace=wrap;rounded=0;" vertex="1" parent="1">
          <mxGeometry x="1991" y="1390" width="70" height="41" as="geometry" />
        </mxCell>
        <mxCell id="UmSkoMp5Hw3NdGfvGKLo-8" value="&lt;font style=&quot;font-size: 14px;&quot;&gt;Выполнить&amp;nbsp; задачи&lt;/font&gt;" style="rounded=0;whiteSpace=wrap;html=1;" vertex="1" parent="1">
          <mxGeometry x="2101" y="1480" width="120" height="80" as="geometry" />
        </mxCell>
        <mxCell id="UmSkoMp5Hw3NdGfvGKLo-14" value="ТЗ и документация проекта" style="text;html=1;strokeColor=none;fillColor=none;align=center;verticalAlign=middle;whiteSpace=wrap;rounded=0;fontSize=14;" vertex="1" parent="1">
          <mxGeometry x="2219.5" y="1240" width="200" height="40" as="geometry" />
        </mxCell>
        <mxCell id="UmSkoMp5Hw3NdGfvGKLo-15" value="" style="endArrow=classic;html=1;rounded=0;fontSize=14;entryX=0;entryY=0.75;entryDx=0;entryDy=0;" edge="1" parent="1" target="UmSkoMp5Hw3NdGfvGKLo-8">
          <mxGeometry width="50" height="50" relative="1" as="geometry">
            <mxPoint x="1621" y="1540" as="sourcePoint" />
            <mxPoint x="2171" y="1530" as="targetPoint" />
          </mxGeometry>
        </mxCell>
        <mxCell id="UmSkoMp5Hw3NdGfvGKLo-16" value="ПО клиента" style="text;html=1;strokeColor=none;fillColor=none;align=center;verticalAlign=middle;whiteSpace=wrap;rounded=0;fontSize=14;" vertex="1" parent="1">
          <mxGeometry x="1631" y="1510" width="105" height="30" as="geometry" />
        </mxCell>
        <mxCell id="UmSkoMp5Hw3NdGfvGKLo-17" value="Результаты выполнения задачи" style="text;html=1;strokeColor=none;fillColor=none;align=center;verticalAlign=middle;whiteSpace=wrap;rounded=0;fontSize=14;" vertex="1" parent="1">
          <mxGeometry x="2241" y="1480" width="153.5" height="40" as="geometry" />
        </mxCell>
        <mxCell id="UmSkoMp5Hw3NdGfvGKLo-19" value="" style="endArrow=classic;html=1;rounded=0;fontSize=14;exitX=1;exitY=0.25;exitDx=0;exitDy=0;" edge="1" parent="1" source="UmSkoMp5Hw3NdGfvGKLo-54">
          <mxGeometry width="50" height="50" relative="1" as="geometry">
            <mxPoint x="3061" y="1720" as="sourcePoint" />
            <mxPoint x="3061" y="1740" as="targetPoint" />
          </mxGeometry>
        </mxCell>
        <mxCell id="UmSkoMp5Hw3NdGfvGKLo-20" value="Модернизированное ПО" style="text;html=1;strokeColor=none;fillColor=none;align=center;verticalAlign=middle;whiteSpace=wrap;rounded=0;fontSize=14;" vertex="1" parent="1">
          <mxGeometry x="2821" y="1710" width="200" height="30" as="geometry" />
        </mxCell>
        <mxCell id="UmSkoMp5Hw3NdGfvGKLo-22" value="" style="endArrow=classic;html=1;rounded=0;fontSize=14;entryX=0.25;entryY=0;entryDx=0;entryDy=0;exitX=0.5;exitY=1;exitDx=0;exitDy=0;jumpStyle=sharp;jumpSize=7;targetPerimeterSpacing=0;shadow=0;" edge="1" parent="1" source="UmSkoMp5Hw3NdGfvGKLo-23" target="UmSkoMp5Hw3NdGfvGKLo-2">
          <mxGeometry width="50" height="50" relative="1" as="geometry">
            <mxPoint x="1844" y="1280" as="sourcePoint" />
            <mxPoint x="2031" y="1270" as="targetPoint" />
          </mxGeometry>
        </mxCell>
        <mxCell id="UmSkoMp5Hw3NdGfvGKLo-23" value="ГОСТ&lt;br/&gt;34.602-89 &lt;br/&gt;" style="text;html=1;strokeColor=none;fillColor=none;align=center;verticalAlign=middle;whiteSpace=wrap;rounded=0;fontSize=14;" vertex="1" parent="1">
          <mxGeometry x="1784" y="1240" width="120" height="40" as="geometry" />
        </mxCell>
        <mxCell id="UmSkoMp5Hw3NdGfvGKLo-24" value="&lt;font style=&quot;font-size: 14px;&quot;&gt;&lt;span style=&quot;font-family: Arial, sans-serif; font-style: normal; font-variant-ligatures: normal; font-variant-caps: normal; font-weight: 400; letter-spacing: normal; orphans: 2; text-align: -webkit-right; text-indent: 0px; text-transform: none; widows: 2; word-spacing: 0px; -webkit-text-stroke-width: 0px; text-decoration-thickness: initial; text-decoration-style: initial; text-decoration-color: initial; float: none; display: inline !important;&quot;&gt;ГОСТ &lt;br&gt;34.603-92&lt;/span&gt;&lt;/font&gt;" style="text;html=1;strokeColor=none;fillColor=none;align=center;verticalAlign=middle;whiteSpace=wrap;rounded=0;fontSize=14;" vertex="1" parent="1">
          <mxGeometry x="2380.25" y="1320" width="120" height="40" as="geometry" />
        </mxCell>
        <mxCell id="UmSkoMp5Hw3NdGfvGKLo-25" value="" style="endArrow=classic;html=1;rounded=0;fontSize=14;entryX=0.5;entryY=0;entryDx=0;entryDy=0;exitX=0.5;exitY=1;exitDx=0;exitDy=0;" edge="1" parent="1" source="UmSkoMp5Hw3NdGfvGKLo-24" target="UmSkoMp5Hw3NdGfvGKLo-51">
          <mxGeometry width="50" height="50" relative="1" as="geometry">
            <mxPoint x="2511" y="1320" as="sourcePoint" />
            <mxPoint x="2451" y="1570" as="targetPoint" />
          </mxGeometry>
        </mxCell>
        <mxCell id="UmSkoMp5Hw3NdGfvGKLo-26" value="" style="endArrow=classic;html=1;rounded=0;fontSize=14;exitX=0.5;exitY=1;exitDx=0;exitDy=0;entryX=0.75;entryY=0;entryDx=0;entryDy=0;" edge="1" parent="1" source="UmSkoMp5Hw3NdGfvGKLo-27" target="UmSkoMp5Hw3NdGfvGKLo-51">
          <mxGeometry width="50" height="50" relative="1" as="geometry">
            <mxPoint x="2551" y="1280" as="sourcePoint" />
            <mxPoint x="2481" y="1560" as="targetPoint" />
          </mxGeometry>
        </mxCell>
        <mxCell id="UmSkoMp5Hw3NdGfvGKLo-27" value="Протокол испытаний" style="text;html=1;strokeColor=none;fillColor=none;align=center;verticalAlign=middle;whiteSpace=wrap;rounded=0;fontSize=14;" vertex="1" parent="1">
          <mxGeometry x="2419.5" y="1399" width="101" height="40" as="geometry" />
        </mxCell>
        <mxCell id="UmSkoMp5Hw3NdGfvGKLo-28" value="" style="endArrow=classic;html=1;rounded=1;fontSize=14;startArrow=classic;startFill=1;exitX=0.5;exitY=1;exitDx=0;exitDy=0;" edge="1" parent="1" source="UmSkoMp5Hw3NdGfvGKLo-54">
          <mxGeometry width="50" height="50" relative="1" as="geometry">
            <mxPoint x="2760" y="1690" as="sourcePoint" />
            <mxPoint x="1875" y="1440" as="targetPoint" />
            <Array as="points">
              <mxPoint x="2721" y="1920" />
              <mxPoint x="1875" y="1920" />
            </Array>
          </mxGeometry>
        </mxCell>
        <mxCell id="UmSkoMp5Hw3NdGfvGKLo-31" value="" style="endArrow=classic;html=1;rounded=1;fontSize=14;entryX=0.333;entryY=1.005;entryDx=0;entryDy=0;entryPerimeter=0;" edge="1" parent="1" target="UmSkoMp5Hw3NdGfvGKLo-8">
          <mxGeometry width="50" height="50" relative="1" as="geometry">
            <mxPoint x="2141" y="1920" as="sourcePoint" />
            <mxPoint x="2461" y="1590" as="targetPoint" />
          </mxGeometry>
        </mxCell>
        <mxCell id="UmSkoMp5Hw3NdGfvGKLo-34" value="Разработчики" style="text;html=1;strokeColor=none;fillColor=none;align=center;verticalAlign=middle;whiteSpace=wrap;rounded=0;fontSize=14;" vertex="1" parent="1">
          <mxGeometry x="2021" y="1840" width="120" height="40" as="geometry" />
        </mxCell>
        <mxCell id="UmSkoMp5Hw3NdGfvGKLo-35" value="" style="endArrow=classic;html=1;rounded=1;fontSize=14;entryX=0.334;entryY=1;entryDx=0;entryDy=0;entryPerimeter=0;" edge="1" parent="1" target="UmSkoMp5Hw3NdGfvGKLo-51">
          <mxGeometry width="50" height="50" relative="1" as="geometry">
            <mxPoint x="2420" y="1920" as="sourcePoint" />
            <mxPoint x="2601" y="1730" as="targetPoint" />
          </mxGeometry>
        </mxCell>
        <mxCell id="UmSkoMp5Hw3NdGfvGKLo-36" value="TeamLead" style="text;html=1;strokeColor=none;fillColor=none;align=center;verticalAlign=middle;whiteSpace=wrap;rounded=0;fontSize=14;" vertex="1" parent="1">
          <mxGeometry x="2581" y="1839" width="140" height="41" as="geometry" />
        </mxCell>
        <mxCell id="UmSkoMp5Hw3NdGfvGKLo-37" value="Тетсировщики" style="text;html=1;strokeColor=none;fillColor=none;align=center;verticalAlign=middle;whiteSpace=wrap;rounded=0;fontSize=14;" vertex="1" parent="1">
          <mxGeometry x="2301" y="1840" width="118.5" height="40" as="geometry" />
        </mxCell>
        <mxCell id="UmSkoMp5Hw3NdGfvGKLo-38" value="Команда разработчиков-тестировщиков" style="text;html=1;strokeColor=none;fillColor=none;align=center;verticalAlign=middle;whiteSpace=wrap;rounded=0;fontSize=14;" vertex="1" parent="1">
          <mxGeometry x="1862" y="1960" width="237" height="50" as="geometry" />
        </mxCell>
        <mxCell id="UmSkoMp5Hw3NdGfvGKLo-39" value="" style="endArrow=classic;html=1;rounded=0;fontSize=14;entryX=0.75;entryY=0;entryDx=0;entryDy=0;" edge="1" parent="1" target="UmSkoMp5Hw3NdGfvGKLo-8">
          <mxGeometry width="50" height="50" relative="1" as="geometry">
            <mxPoint x="2191" y="1280" as="sourcePoint" />
            <mxPoint x="2391" y="1350" as="targetPoint" />
          </mxGeometry>
        </mxCell>
        <mxCell id="UmSkoMp5Hw3NdGfvGKLo-40" value="" style="endArrow=classic;html=1;rounded=1;fontSize=14;entryX=0.25;entryY=0;entryDx=0;entryDy=0;exitX=0.75;exitY=0;exitDx=0;exitDy=0;startArrow=classic;startFill=1;" edge="1" parent="1" source="UmSkoMp5Hw3NdGfvGKLo-2" target="UmSkoMp5Hw3NdGfvGKLo-54">
          <mxGeometry width="50" height="50" relative="1" as="geometry">
            <mxPoint x="2959" y="1250" as="sourcePoint" />
            <mxPoint x="2963.5" y="1690" as="targetPoint" />
            <Array as="points">
              <mxPoint x="1909" y="1280" />
              <mxPoint x="2691" y="1280" />
            </Array>
          </mxGeometry>
        </mxCell>
        <mxCell id="UmSkoMp5Hw3NdGfvGKLo-46" value="" style="endArrow=classic;html=1;rounded=1;fontSize=14;entryX=0.666;entryY=0.994;entryDx=0;entryDy=0;exitX=0.75;exitY=1;exitDx=0;exitDy=0;entryPerimeter=0;startArrow=classic;startFill=1;" edge="1" parent="1" source="UmSkoMp5Hw3NdGfvGKLo-51" target="UmSkoMp5Hw3NdGfvGKLo-8">
          <mxGeometry width="50" height="50" relative="1" as="geometry">
            <mxPoint x="2301" y="2050" as="sourcePoint" />
            <mxPoint x="2281" y="1690" as="targetPoint" />
            <Array as="points">
              <mxPoint x="2471" y="1960" />
              <mxPoint x="2181" y="1960" />
            </Array>
          </mxGeometry>
        </mxCell>
        <mxCell id="UmSkoMp5Hw3NdGfvGKLo-48" value="&lt;font style=&quot;font-size: 14px;&quot;&gt;&lt;span style=&quot;font-family: &amp;quot;Times New Roman&amp;quot;; font-style: normal; font-variant-ligatures: normal; font-variant-caps: normal; font-weight: 400; letter-spacing: normal; orphans: 2; text-indent: 0px; text-transform: none; widows: 2; word-spacing: 0px; -webkit-text-stroke-width: 0px; text-decoration-thickness: initial; text-decoration-style: initial; text-decoration-color: initial; float: none; display: inline !important;&quot;&gt;Инструменты&lt;/span&gt;&lt;br style=&quot;font-family: &amp;quot;Times New Roman&amp;quot;; font-style: normal; font-variant-ligatures: normal; font-variant-caps: normal; font-weight: 400; letter-spacing: normal; orphans: 2; text-indent: 0px; text-transform: none; widows: 2; word-spacing: 0px; -webkit-text-stroke-width: 0px; text-decoration-thickness: initial; text-decoration-style: initial; text-decoration-color: initial;&quot;&gt;&lt;span style=&quot;font-family: &amp;quot;Times New Roman&amp;quot;; font-style: normal; font-variant-ligatures: normal; font-variant-caps: normal; font-weight: 400; letter-spacing: normal; orphans: 2; text-indent: 0px; text-transform: none; widows: 2; word-spacing: 0px; -webkit-text-stroke-width: 0px; text-decoration-thickness: initial; text-decoration-style: initial; text-decoration-color: initial; float: none; display: inline !important;&quot;&gt;(языки программирования, плагины, расширения, редакторы, проргаммы)&lt;/span&gt;&lt;/font&gt;" style="text;whiteSpace=wrap;html=1;fontSize=14;align=center;" vertex="1" parent="1">
          <mxGeometry x="2181" y="1990" width="290" height="70" as="geometry" />
        </mxCell>
        <mxCell id="UmSkoMp5Hw3NdGfvGKLo-50" value="" style="endArrow=classic;html=1;rounded=1;exitX=1;exitY=0.5;exitDx=0;exitDy=0;entryX=0;entryY=0.5;entryDx=0;entryDy=0;" edge="1" parent="1" source="UmSkoMp5Hw3NdGfvGKLo-8" target="UmSkoMp5Hw3NdGfvGKLo-51">
          <mxGeometry width="50" height="50" relative="1" as="geometry">
            <mxPoint x="2302.5" y="1510" as="sourcePoint" />
            <mxPoint x="2461" y="1590" as="targetPoint" />
            <Array as="points">
              <mxPoint x="2301" y="1520" />
              <mxPoint x="2301" y="1640" />
            </Array>
          </mxGeometry>
        </mxCell>
        <mxCell id="UmSkoMp5Hw3NdGfvGKLo-51" value="Протестировать результаты" style="rounded=0;whiteSpace=wrap;html=1;fontSize=14;" vertex="1" parent="1">
          <mxGeometry x="2380.25" y="1600" width="120" height="80" as="geometry" />
        </mxCell>
        <mxCell id="UmSkoMp5Hw3NdGfvGKLo-52" value="" style="endArrow=classic;html=1;rounded=1;fontSize=14;exitX=1;exitY=0.5;exitDx=0;exitDy=0;entryX=0;entryY=0.5;entryDx=0;entryDy=0;" edge="1" parent="1" source="UmSkoMp5Hw3NdGfvGKLo-51" target="UmSkoMp5Hw3NdGfvGKLo-54">
          <mxGeometry width="50" height="50" relative="1" as="geometry">
            <mxPoint x="2641" y="1610" as="sourcePoint" />
            <mxPoint x="2701" y="1660" as="targetPoint" />
            <Array as="points">
              <mxPoint x="2581" y="1640" />
              <mxPoint x="2581" y="1760" />
            </Array>
          </mxGeometry>
        </mxCell>
        <mxCell id="UmSkoMp5Hw3NdGfvGKLo-53" value="Результаты тестирования" style="text;html=1;strokeColor=none;fillColor=none;align=center;verticalAlign=middle;whiteSpace=wrap;rounded=0;fontSize=14;" vertex="1" parent="1">
          <mxGeometry x="2541" y="1600" width="120" height="40" as="geometry" />
        </mxCell>
        <mxCell id="UmSkoMp5Hw3NdGfvGKLo-54" value="Сборка и отладка ПО" style="rounded=0;whiteSpace=wrap;html=1;fontSize=14;" vertex="1" parent="1">
          <mxGeometry x="2661" y="1720" width="120" height="80" as="geometry" />
        </mxCell>
        <mxCell id="UmSkoMp5Hw3NdGfvGKLo-58" value="TeamLead" style="text;html=1;strokeColor=none;fillColor=none;align=center;verticalAlign=middle;whiteSpace=wrap;rounded=0;fontSize=14;" vertex="1" parent="1">
          <mxGeometry x="1741" y="1840" width="134" height="40" as="geometry" />
        </mxCell>
        <mxCell id="UmSkoMp5Hw3NdGfvGKLo-59" value="" style="endArrow=classic;html=1;rounded=0;fontSize=14;entryX=0.25;entryY=0;entryDx=0;entryDy=0;" edge="1" parent="1" target="UmSkoMp5Hw3NdGfvGKLo-51">
          <mxGeometry width="50" height="50" relative="1" as="geometry">
            <mxPoint x="2410" y="1280" as="sourcePoint" />
            <mxPoint x="2394.5" y="1560" as="targetPoint" />
          </mxGeometry>
        </mxCell>
        <mxCell id="UmSkoMp5Hw3NdGfvGKLo-60" value="" style="endArrow=classic;html=1;rounded=1;fontFamily=Helvetica;fontSize=14;entryX=0.5;entryY=0;entryDx=0;entryDy=0;exitX=0.5;exitY=1;exitDx=0;exitDy=0;" edge="1" parent="1" source="UmSkoMp5Hw3NdGfvGKLo-61" target="UmSkoMp5Hw3NdGfvGKLo-54">
          <mxGeometry width="50" height="50" relative="1" as="geometry">
            <mxPoint x="2751" y="1390" as="sourcePoint" />
            <mxPoint x="2861" y="1540" as="targetPoint" />
          </mxGeometry>
        </mxCell>
        <mxCell id="UmSkoMp5Hw3NdGfvGKLo-61" value="&lt;p style=&quot;margin: 0px; line-height: 120%;&quot;&gt;&lt;span style=&quot;font-weight: normal;&quot;&gt;&lt;font style=&quot;font-size: 14px;&quot;&gt;ГОСТ Р ИСО/МЭК&amp;nbsp;&lt;br&gt;&lt;/font&gt;&lt;/span&gt;&lt;span style=&quot;font-weight: normal;&quot;&gt;&lt;font style=&quot;font-size: 14px;&quot;&gt;14764-2002&lt;/font&gt;&lt;/span&gt;&lt;/p&gt;" style="text;html=1;strokeColor=none;fillColor=none;align=center;verticalAlign=middle;whiteSpace=wrap;rounded=0;fontFamily=Helvetica;fontSize=14;" vertex="1" parent="1">
          <mxGeometry x="2621" y="1320" width="200" height="40" as="geometry" />
        </mxCell>
        <mxCell id="UmSkoMp5Hw3NdGfvGKLo-63" value="ГОСТ Р ИСО/МЭК 15910-2002" style="text;html=1;strokeColor=none;fillColor=none;align=center;verticalAlign=middle;whiteSpace=wrap;rounded=0;labelBackgroundColor=none;fontFamily=Helvetica;fontSize=14;fontColor=#000000;" vertex="1" parent="1">
          <mxGeometry x="2671" y="1399" width="160" height="40" as="geometry" />
        </mxCell>
        <mxCell id="UmSkoMp5Hw3NdGfvGKLo-64" value="" style="endArrow=classic;html=1;rounded=1;fontFamily=Helvetica;fontSize=14;fontColor=#000000;entryX=0.75;entryY=0;entryDx=0;entryDy=0;exitX=0.5;exitY=1;exitDx=0;exitDy=0;" edge="1" parent="1" source="UmSkoMp5Hw3NdGfvGKLo-63" target="UmSkoMp5Hw3NdGfvGKLo-54">
          <mxGeometry width="50" height="50" relative="1" as="geometry">
            <mxPoint x="2751" y="1480" as="sourcePoint" />
            <mxPoint x="2741" y="1550" as="targetPoint" />
          </mxGeometry>
        </mxCell>
        <mxCell id="UmSkoMp5Hw3NdGfvGKLo-65" value="" style="endArrow=classic;html=1;rounded=1;fontFamily=Helvetica;fontSize=14;fontColor=#000000;exitX=1;exitY=0.75;exitDx=0;exitDy=0;" edge="1" parent="1" source="UmSkoMp5Hw3NdGfvGKLo-54">
          <mxGeometry width="50" height="50" relative="1" as="geometry">
            <mxPoint x="2871" y="1790" as="sourcePoint" />
            <mxPoint x="3061" y="1780" as="targetPoint" />
          </mxGeometry>
        </mxCell>
        <mxCell id="UmSkoMp5Hw3NdGfvGKLo-66" value="Документация ПО" style="text;html=1;strokeColor=none;fillColor=none;align=center;verticalAlign=middle;whiteSpace=wrap;rounded=0;labelBackgroundColor=none;fontFamily=Helvetica;fontSize=14;fontColor=#000000;" vertex="1" parent="1">
          <mxGeometry x="2821" y="1750" width="200" height="30" as="geometry" />
        </mxCell>
        <mxCell id="UmSkoMp5Hw3NdGfvGKLo-68" value="" style="endArrow=none;html=1;rounded=1;fontFamily=Helvetica;fontSize=14;fontColor=#000000;exitX=0.5;exitY=0;exitDx=0;exitDy=0;" edge="1" parent="1" source="UmSkoMp5Hw3NdGfvGKLo-38">
          <mxGeometry width="50" height="50" relative="1" as="geometry">
            <mxPoint x="2191" y="1950" as="sourcePoint" />
            <mxPoint x="1981" y="1920" as="targetPoint" />
          </mxGeometry>
        </mxCell>
        <mxCell id="UmSkoMp5Hw3NdGfvGKLo-69" value="" style="endArrow=none;html=1;rounded=1;fontFamily=Helvetica;fontSize=14;fontColor=#000000;exitX=0.5;exitY=0;exitDx=0;exitDy=0;" edge="1" parent="1" source="UmSkoMp5Hw3NdGfvGKLo-48">
          <mxGeometry width="50" height="50" relative="1" as="geometry">
            <mxPoint x="2361" y="1990" as="sourcePoint" />
            <mxPoint x="2326" y="1960" as="targetPoint" />
          </mxGeometry>
        </mxCell>
      </root>
    </mxGraphModel>
  </diagram>
</mxfile>
